<svg id="Layer_1" enable-background="new 0 0 256 256" height="512" viewBox="0 0 256 256" width="512" xmlns="http://www.w3.org/2000/svg"><path d="m244.001 174.333h-232c-2.209 0-4 1.791-4 4v19.983c0 2.209 1.791 4 4 4h232c2.209 0 4-1.791 4-4v-19.983c0-2.209-1.791-4-4-4z" fill="#a4c9ff"/><path d="m244.001 204.317h-232c-3.309 0-6-2.691-6-6v-19.983c0-3.309 2.691-6 6-6h232c3.309 0 6 2.691 6 6v19.983c0 3.308-2.691 6-6 6zm-232-27.984c-1.103 0-2 .897-2 2v19.983c0 1.103.897 2 2 2h232c1.103 0 2-.897 2-2v-19.983c0-1.103-.897-2-2-2z" fill="#3762cc"/><path d="m241.001 129.5h-226c-3.866 0-7-3.134-7-7v-107.5c0-3.866 3.134-7 7-7h226c3.866 0 7 3.134 7 7v107.5c0 3.866-3.134 7-7 7z" fill="#e0ebfc"/><path d="m241.001 131.5h-226c-4.963 0-9-4.038-9-9v-107.5c0-4.962 4.037-9 9-9h226c4.963 0 9 4.038 9 9v107.5c0 4.962-4.037 9-9 9zm-226-121.5c-2.757 0-5 2.243-5 5v107.5c0 2.757 2.243 5 5 5h226c2.757 0 5-2.243 5-5v-107.5c0-2.757-2.243-5-5-5z" fill="#3762cc"/><path d="m131.185 85.049h-86.368c-2.209 0-4-1.791-4-4v-57.049c0-2.209 1.791-4 4-4h86.367c2.209 0 4 1.791 4 4v57.049c.001 2.209-1.79 4-3.999 4z" fill="#f9a7a7"/><path d="m226.043 119.049h-94.042c-2.209 0-4-1.791-4-4v-57.049c0-2.209 1.791-4 4-4h94.042c2.209 0 4 1.791 4 4v57.049c0 2.209-1.791 4-4 4z" fill="#f9cfcf"/><path d="m33.429 99.783-9.141-20.159h18.282z" fill="#a4c9ff"/><path d="m104.384 98.582c-.767-1.365-2.464-1.833-3.792-1.045l-6.318 3.751c-.445.264-.966.358-1.471.265l-8.243-1.526-1.146-.136h6.765c1.521 0 2.753-1.278 2.753-2.855 0-.495-.387-.897-.865-.897h-7.821c-.548 0-1.09.123-1.588.362l-5.131 2.455c-.802.384-1.674.582-2.558.582h-.174v7.504h1.514l17.249-1.57c.012-.001.025-.002.037-.003l.498-.042c.407-.043.802-.175 1.157-.386l8.814-5.233c.418-.249.561-.797.32-1.226z" fill="#f9cfcf"/><path d="m76.31 109.041h-1.514c-1.104 0-2-.896-2-2v-7.503c0-1.104.896-2 2-2h.173c.588 0 1.158-.13 1.694-.387l5.131-2.455c.764-.365 1.611-.557 2.451-.557h7.821c1.58 0 2.865 1.3 2.865 2.897 0 .592-.104 1.16-.295 1.685l4.935-2.903c1.103-.656 2.394-.833 3.626-.502 1.249.335 2.29 1.147 2.931 2.288.768 1.367.3 3.127-1.043 3.924l-8.813 5.232c-.605.36-1.269.581-1.968.655l-.54.046-17.272 1.572c-.061.005-.122.008-.182.008zm.486-7.72v3.667l15.821-1.44c-.06-.008-.12-.018-.181-.029l-8.178-1.514-1.081-.128c-1.052-.125-1.823-1.047-1.761-2.104.01-.177.043-.348.097-.509l-3.124 1.495c-.508.243-1.044.432-1.593.562zm25.845-1.759h.01z" fill="#3762cc"/><path d="m42.741 79.624h-2.455c-.005 0-.011-.001-.016-.001l-.001.001h-16.152c-4.267 0-7.726 3.459-7.726 7.726v3.876 1.1 2.038 5.42 4.185 5.154 10.476h34.075v-10.476-5.154-4.185-5.42-2.038-1.1-3.876c0-4.267-3.459-7.726-7.725-7.726zm-9.312 20.159-9.141-20.16h18.282z" fill="#4671c6"/><path d="m76.446 95.789h-20.774l-5.746-11.264c.344.875.54 1.826.54 2.824v3.876 1.1 2.038 5.42 4.185 5.154h3.054 8.953 13.973c.404 0 .732-.328.732-.732v-11.868c0-.405-.328-.733-.732-.733z" fill="#e0ebfc"/><path d="m49.228 83.163c.008.012.014.024.022.036l-.022-.043z" fill="#e0ebfc"/><path d="m49.224 85.184c-.638 0-1.258-.306-1.638-.875-.018-.026-.046-.071-.063-.099-.187-.311-.296-.685-.296-1.047v-.007c0-.922.631-1.726 1.527-1.943.896-.221 1.826.206 2.249 1.025.487.943.165 2.125-.75 2.663-.323.19-.679.283-1.029.283z" fill="#3762cc"/><path d="m76.445 111.122h-25.978c-1.104 0-2-.896-2-2v-21.772c0-.71-.135-1.414-.401-2.093-.391-.993.067-2.117 1.04-2.555.975-.438 2.118-.035 2.603.915l5.188 10.172h19.549c1.507 0 2.732 1.226 2.732 2.732v11.869c0 1.506-1.226 2.732-2.733 2.732zm-23.978-4h22.711v-9.332h-19.506c-.752 0-1.44-.421-1.781-1.091l-1.424-2.791zm23.978-9.332h.01z" fill="#3762cc"/><path d="m33.402 82.752 4.253-3.129 2.621-1.929h.023v-.979c-2.062 1.042-4.396 1.631-6.87 1.631-2.475 0-4.811-.589-6.874-1.633v.981l2.621 1.929z" fill="#f9cfcf"/><path d="m48.674 57.623c-.032 0-.064.004-.096.005v-1.418c0-8.291-6.782-15.013-15.149-15.013-8.367 0-15.149 6.721-15.149 15.013v1.418c-.032-.001-.063-.005-.096-.005-2.552 0-4.622 2.051-4.622 4.58 0 2.53 2.069 4.58 4.622 4.58.168 0 .333-.01.496-.027 1.563 6.642 7.571 11.59 14.749 11.59 7.178 0 13.186-4.949 14.749-11.59.163.017.328.027.496.027 2.552 0 4.622-2.051 4.622-4.58-.001-2.53-2.07-4.58-4.622-4.58z" fill="#f9cfcf"/><path d="m25.196 65.023c-1.008 0-1.829-.82-1.829-1.829v-3.048c0-1.008.82-1.829 1.829-1.829 1.008 0 1.829.82 1.829 1.829v3.048c0 1.009-.821 1.829-1.829 1.829z" fill="#3762cc"/><path d="m41.59 65.023c-1.008 0-1.829-.82-1.829-1.829v-3.048c0-1.008.82-1.829 1.829-1.829 1.008 0 1.829.82 1.829 1.829v3.048c0 1.009-.821 1.829-1.829 1.829z" fill="#3762cc"/><path d="m33.83 72.276c.657 0 1.317-.138 1.887-.466.412-.237.779-.552 1.076-.935.401-.516.653-1.125.735-1.763.032-.244-.163-.461-.409-.461h-7.379c-.246 0-.441.217-.409.461.082.638.335 1.247.735 1.763.297.383.664.698 1.076.935.57.328 1.229.466 1.887.466z" fill="#f9a7a7"/><path d="m33.402 82.752-2.588 4.006.394 2.587h2.194 2.195l.394-2.587z" fill="#f9a7a7"/><path d="m33.429 99.783 2.975-6.56-.807-3.878h-2.168-.053-2.168l-.79 3.798z" fill="#f9a7a7"/><path d="m33.402 82.752 2.126 4.005c.194.365.694.42.963.107l5.941-6.914c.168-.195.189-.477.052-.694l-.654-1.04c-.204-.325-.562-.522-.946-.522h-.608z" fill="#e0ebfc"/><path d="m33.429 82.752-2.126 4.005c-.194.365-.694.42-.963.107l-5.941-6.914c-.168-.195-.189-.477-.052-.694l.654-1.04c.204-.325.562-.522.946-.522h.608z" fill="#e0ebfc"/><path d="m50.467 121.598h-34.075c-1.104 0-2-.896-2-2v-32.248c0-4.975 3.754-9.089 8.578-9.659l.338-.538c.015-.023.029-.045.044-.068-2.872-2.084-5.062-5.031-6.192-8.381-3.166-.492-5.597-3.22-5.597-6.502 0-2.972 1.993-5.49 4.721-6.304.167-9.238 7.794-16.703 17.146-16.703s16.979 7.464 17.146 16.703c2.728.814 4.721 3.332 4.721 6.304 0 3.282-2.431 6.011-5.598 6.502-1.133 3.357-3.329 6.31-6.21 8.394.012.019.024.037.036.056l.335.533c4.838.557 8.607 4.678 8.607 9.662v32.248c0 1.105-.896 2.001-2 2.001zm-32.075-4h30.075v-30.248c0-3.157-2.569-5.726-5.727-5.726h-.171c-.563 0-1.1-.237-1.479-.653-.241-.265-.404-.587-.478-.93l-.217-.345h-.098c-.921 0-1.697-.623-1.929-1.47-.119-.137-.221-.292-.302-.464-.468-1-.037-2.19.963-2.659h.002c3.606-1.687 6.297-4.978 7.197-8.804.23-.98 1.168-1.635 2.155-1.531.095.01.19.017.288.017 1.446 0 2.622-1.158 2.622-2.581 0-1.433-1.197-2.575-2.652-2.58-.526 0-1.062-.204-1.437-.573-.381-.375-.629-.887-.629-1.422v-1.418c0-7.175-5.898-13.013-13.149-13.013-7.25 0-13.148 5.837-13.148 13.013v1.418c0 .536-.215 1.049-.597 1.425-.381.375-.916.585-1.434.575-.039-.001-.122-.005-.161-.008-1.351.003-2.526 1.16-2.526 2.583s1.176 2.581 2.622 2.581c.097 0 .192-.006.287-.017 1.001-.102 1.924.551 2.155 1.531.9 3.825 3.591 7.116 7.197 8.803h.001c1 .469 1.431 1.659.963 2.659-.082.174-.186.331-.306.469-.233.845-1.008 1.466-1.928 1.466h-.12l-.217.345c-.073.343-.236.666-.478.93-.379.416-.916.653-1.479.653h-.145c-3.157 0-5.726 2.569-5.726 5.726v30.248zm22.395-37.282c.003.005.007.011.01.016z" fill="#3762cc"/><path d="m51.498 56.069h-3.336c-1.152 0-2.085-.934-2.085-2.085v-14.874c0-1.152.934-2.085 2.085-2.085 2.994 0 5.421 2.427 5.421 5.421v11.538c0 1.152-.933 2.085-2.085 2.085z" fill="#4671c6"/><path d="m51.498 58.069h-3.336c-2.253 0-4.085-1.833-4.085-4.085v-14.875c0-2.252 1.832-4.085 4.085-4.085 4.092 0 7.421 3.329 7.421 7.421v11.538c0 2.253-1.832 4.086-4.085 4.086zm-3.336-19.045c-.047 0-.085.038-.085.085v14.875c0 .047.038.085.085.085h3.336c.047 0 .085-.038.085-.085v-11.538c0-1.887-1.534-3.422-3.421-3.422z" fill="#3762cc"/><path d="m42.242 36.572h-17c-2.069 0-4.132-.313-6.083-1.001-1.773-.626-3.627-1.601-4.684-3.096-.283-.4-.994-.29-1.117.165-1.104 4.059-3.422 15.227 2.899 19.962l.066-.141c1.438 1.29 3.377 2.083 5.513 2.083h15.934c4.588 0 8.307-3.53 8.307-7.885v-6.447c0-2.01-1.717-3.64-3.835-3.64z" fill="#4671c6"/><path d="m37.77 56.543h-15.935c-2.246 0-4.399-.714-6.155-2.026-.222-.067-.433-.172-.623-.315-7.228-5.414-4.945-17.25-3.629-22.088.262-.96 1.053-1.667 2.064-1.845 1.013-.179 2.041.235 2.617 1.053.647.917 1.932 1.734 3.714 2.362 1.669.589 3.491.887 5.418.887h17.001c3.218 0 5.835 2.53 5.835 5.639v6.447c0 5.452-4.624 9.886-10.307 9.886zm-20.858-5.994c.272.084.527.227.746.422 1.129 1.014 2.613 1.572 4.177 1.572h15.935c3.479 0 6.308-2.64 6.308-5.885v-6.447c0-.904-.823-1.639-1.835-1.639h-17.002c-2.381 0-4.651-.375-6.748-1.115-1.488-.525-2.747-1.17-3.767-1.93-.867 4.233-1.635 11.495 2.186 15.022zm-4.071-16.92.003.003c-.001-.001-.002-.002-.003-.003z" fill="#3762cc"/><path d="m16.316 125.484h17.062v56.833h-17.062z" fill="#4671c6"/><path d="m16.316 119.598h34.123v5.886h-34.123z" fill="#4671c6"/><path d="m33.378 125.484h17.088v56.833h-17.088z" fill="#4671c6"/><path d="m33.378 184.317h-17.062c-1.104 0-2-.896-2-2v-56.833c0-1.104.896-2 2-2h17.062c1.104 0 2 .896 2 2v56.833c0 1.104-.896 2-2 2zm-15.062-4h13.062v-52.833h-13.062z" fill="#3762cc"/><path d="m50.44 127.484h-34.124c-1.104 0-2-.896-2-2v-5.886c0-1.104.896-2 2-2h34.124c1.104 0 2 .896 2 2v5.886c0 1.104-.895 2-2 2zm-32.124-4h30.124v-1.886h-30.124z" fill="#3762cc"/><path d="m50.467 184.317h-17.089c-1.104 0-2-.896-2-2v-56.833c0-1.104.896-2 2-2h17.089c1.104 0 2 .896 2 2v56.833c0 1.104-.896 2-2 2zm-15.089-4h13.089v-52.833h-13.089z" fill="#3762cc"/><path d="m16.509 86.049-8.51 40.826h8.51z" fill="#e0ebfc"/><path d="m16.509 128.875h-8.51c-.602 0-1.172-.271-1.552-.738s-.529-1.081-.406-1.67l8.51-40.827c.209-1.003 1.143-1.692 2.163-1.581 1.02.105 1.795.964 1.795 1.989v40.827c0 1.104-.896 2-2 2zm-6.05-4h4.05v-19.43z" fill="#3762cc"/><path d="m9.253 126.875-1.254 4.495v5.351h8.51v-9.846z" fill="#f9cfcf"/><path d="m16.509 138.721h-8.51c-1.104 0-2-.896-2-2v-5.351c0-.182.024-.362.073-.538l1.254-4.495c.241-.864 1.029-1.462 1.927-1.462h7.256c1.104 0 2 .896 2 2v9.846c0 1.104-.896 2-2 2zm-6.51-4h4.51v-5.846h-3.737l-.772 2.769v3.077z" fill="#3762cc"/><path d="m155.118 214.128h-54.233v-10.698c0-11.661 9.453-21.114 21.114-21.114h12.006c11.661 0 21.114 9.453 21.114 21.114v10.698z" fill="#6bdddd"/><path d="m128.001 182.317c-11.781 0-21.332-9.55-21.332-21.331v-6.32c0-11.781 9.55-21.331 21.331-21.331 11.781 0 21.331 9.55 21.331 21.331v6.32c.001 11.78-9.549 21.331-21.33 21.331z" fill="#4671c6"/><path d="m128.001 184.317c-12.865 0-23.331-10.466-23.331-23.332v-6.321c0-12.865 10.466-23.331 23.331-23.331s23.331 10.466 23.331 23.331v6.321c0 12.866-10.466 23.332-23.331 23.332zm0-48.984c-10.659 0-19.331 8.672-19.331 19.331v6.321c0 10.66 8.672 19.332 19.331 19.332s19.331-8.672 19.331-19.332v-6.321c0-10.659-8.672-19.331-19.331-19.331z" fill="#3762cc"/><path d="m155.117 216.128h-54.232c-1.104 0-2-.896-2-2v-10.698c0-12.745 10.368-23.113 23.113-23.113h12.006c12.745 0 23.113 10.369 23.113 23.113v10.698c0 1.104-.895 2-2 2zm-52.232-4h50.232v-8.698c0-10.539-8.574-19.113-19.113-19.113h-12.006c-10.539 0-19.113 8.574-19.113 19.113z" fill="#3762cc"/><path d="m216.577 214.128h-54.233v-10.698c0-11.661 9.453-21.114 21.114-21.114h12.006c11.661 0 21.114 9.453 21.114 21.114v10.698z" fill="#f9a7a7"/><path d="m189.46 182.317c-11.781 0-21.332-9.55-21.332-21.331v-6.32c0-11.781 9.55-21.331 21.331-21.331 11.781 0 21.331 9.55 21.331 21.331v6.32c.002 11.78-9.549 21.331-21.33 21.331z" fill="#4671c6"/><path d="m189.46 184.317c-12.865 0-23.331-10.466-23.331-23.332v-6.321c0-12.865 10.466-23.331 23.331-23.331s23.332 10.466 23.332 23.331v6.321c0 12.866-10.467 23.332-23.332 23.332zm0-48.984c-10.659 0-19.331 8.672-19.331 19.331v6.321c0 10.66 8.672 19.332 19.331 19.332 10.66 0 19.332-8.672 19.332-19.332v-6.321c0-10.659-8.672-19.331-19.332-19.331z" fill="#3762cc"/><path d="m216.577 216.128h-54.233c-1.104 0-2-.896-2-2v-10.698c0-12.745 10.368-23.113 23.113-23.113h12.006c12.745 0 23.114 10.369 23.114 23.113v10.698c0 1.104-.895 2-2 2zm-52.233-4h50.233v-8.698c0-10.539-8.574-19.113-19.114-19.113h-12.006c-10.539 0-19.113 8.574-19.113 19.113z" fill="#3762cc"/><path d="m93.658 214.128h-54.233v-10.698c0-11.661 9.453-21.114 21.114-21.114h12.006c11.661 0 21.114 9.453 21.114 21.114v10.698z" fill="#f9a7a7"/><path d="m66.542 182.317c-11.781 0-21.332-9.55-21.332-21.331v-6.32c0-11.781 9.55-21.331 21.331-21.331 11.781 0 21.331 9.55 21.331 21.331v6.32c.001 11.78-9.549 21.331-21.33 21.331z" fill="#4671c6"/><path d="m66.542 184.317c-12.865 0-23.332-10.466-23.332-23.332v-6.321c0-12.865 10.467-23.331 23.332-23.331s23.331 10.466 23.331 23.331v6.321c0 12.866-10.466 23.332-23.331 23.332zm0-48.984c-10.66 0-19.332 8.672-19.332 19.331v6.321c0 10.66 8.672 19.332 19.332 19.332 10.659 0 19.331-8.672 19.331-19.332v-6.321c0-10.659-8.672-19.331-19.331-19.331z" fill="#3762cc"/><path d="m93.658 216.128h-54.233c-1.104 0-2-.896-2-2v-10.698c0-12.745 10.369-23.113 23.114-23.113h12.006c12.745 0 23.113 10.369 23.113 23.113v10.698c0 1.104-.895 2-2 2zm-52.233-4h50.233v-8.698c0-10.539-8.574-19.113-19.113-19.113h-12.006c-10.54 0-19.114 8.574-19.114 19.113z" fill="#3762cc"/><path d="m62.234 248h-54.233v-10.698c0-11.661 9.453-21.114 21.114-21.114h12.006c11.661 0 21.114 9.453 21.114 21.114v10.698z" fill="#6bdddd"/><path d="m35.118 216.189c-11.781 0-21.332-9.55-21.332-21.331v-6.32c0-11.781 9.55-21.331 21.331-21.331 11.781 0 21.331 9.55 21.331 21.331v6.32c.001 11.781-9.549 21.331-21.33 21.331z" fill="#4671c6"/><path d="m35.117 218.189c-12.865 0-23.331-10.466-23.331-23.332v-6.32c0-12.865 10.466-23.332 23.331-23.332s23.332 10.466 23.332 23.332v6.32c0 12.866-10.467 23.332-23.332 23.332zm0-48.983c-10.659 0-19.331 8.672-19.331 19.332v6.32c0 10.66 8.672 19.332 19.331 19.332 10.66 0 19.332-8.672 19.332-19.332v-6.32c0-10.661-8.672-19.332-19.332-19.332z" fill="#3762cc"/><path d="m62.234 250h-54.233c-1.104 0-2-.896-2-2v-10.698c0-12.745 10.368-23.113 23.113-23.113h12.007c12.745 0 23.113 10.369 23.113 23.113v10.698c0 1.104-.895 2-2 2zm-52.233-4h50.233v-8.698c0-10.539-8.574-19.113-19.113-19.113h-12.007c-10.539 0-19.113 8.574-19.113 19.113z" fill="#3762cc"/><path d="m124.001 248h-54.233v-10.698c0-11.661 9.453-21.114 21.114-21.114h12.006c11.661 0 21.114 9.453 21.114 21.114v10.698z" fill="#f9a7a7"/><path d="m96.884 216.189c-11.781 0-21.332-9.55-21.332-21.331v-6.32c0-11.781 9.55-21.331 21.331-21.331 11.781 0 21.331 9.55 21.331 21.331v6.32c.002 11.781-9.549 21.331-21.33 21.331z" fill="#4671c6"/><path d="m96.885 218.189c-12.865 0-23.332-10.466-23.332-23.332v-6.32c0-12.865 10.467-23.332 23.332-23.332s23.331 10.466 23.331 23.332v6.32c0 12.866-10.466 23.332-23.331 23.332zm0-48.983c-10.66 0-19.332 8.672-19.332 19.332v6.32c0 10.66 8.672 19.332 19.332 19.332 10.659 0 19.331-8.672 19.331-19.332v-6.32c0-10.661-8.672-19.332-19.331-19.332z" fill="#3762cc"/><path d="m124.001 250h-54.233c-1.104 0-2-.896-2-2v-10.698c0-12.745 10.368-23.113 23.113-23.113h12.007c12.745 0 23.113 10.369 23.113 23.113v10.698c0 1.104-.896 2-2 2zm-52.233-4h50.233v-8.698c0-10.539-8.574-19.113-19.113-19.113h-12.007c-10.539 0-19.113 8.574-19.113 19.113z" fill="#3762cc"/><path d="m186.234 248h-54.233v-10.698c0-11.661 9.453-21.114 21.114-21.114h12.006c11.661 0 21.114 9.453 21.114 21.114v10.698z" fill="#f9a7a7"/><path d="m159.118 216.189c-11.781 0-21.331-9.55-21.331-21.331v-6.32c0-11.781 9.55-21.331 21.331-21.331 11.781 0 21.331 9.55 21.331 21.331v6.32c0 11.781-9.55 21.331-21.331 21.331z" fill="#4671c6"/><path d="m159.117 218.189c-12.865 0-23.331-10.466-23.331-23.332v-6.32c0-12.865 10.466-23.332 23.331-23.332s23.332 10.466 23.332 23.332v6.32c0 12.866-10.467 23.332-23.332 23.332zm0-48.983c-10.659 0-19.331 8.672-19.331 19.332v6.32c0 10.66 8.672 19.332 19.331 19.332 10.66 0 19.332-8.672 19.332-19.332v-6.32c0-10.661-8.672-19.332-19.332-19.332z" fill="#3762cc"/><path d="m186.234 250h-54.233c-1.104 0-2-.896-2-2v-10.698c0-12.745 10.368-23.113 23.113-23.113h12.007c12.745 0 23.113 10.369 23.113 23.113v10.698c0 1.104-.895 2-2 2zm-52.233-4h50.233v-8.698c0-10.539-8.574-19.113-19.113-19.113h-12.007c-10.539 0-19.113 8.574-19.113 19.113z" fill="#3762cc"/><path d="m248.001 248h-54.233v-10.698c0-11.661 9.453-21.114 21.114-21.114h12.006c11.661 0 21.114 9.453 21.114 21.114v10.698z" fill="#6bdddd"/><path d="m220.884 216.189c-11.781 0-21.332-9.55-21.332-21.331v-6.32c0-11.781 9.55-21.331 21.331-21.331 11.781 0 21.331 9.55 21.331 21.331v6.32c.002 11.781-9.549 21.331-21.33 21.331z" fill="#4671c6"/><path d="m220.885 218.189c-12.865 0-23.332-10.466-23.332-23.332v-6.32c0-12.865 10.467-23.332 23.332-23.332s23.331 10.466 23.331 23.332v6.32c0 12.866-10.466 23.332-23.331 23.332zm0-48.983c-10.66 0-19.332 8.672-19.332 19.332v6.32c0 10.66 8.672 19.332 19.332 19.332 10.659 0 19.331-8.672 19.331-19.332v-6.32c0-10.661-8.672-19.332-19.331-19.332z" fill="#3762cc"/><path d="m248.001 250h-54.233c-1.104 0-2-.896-2-2v-10.698c0-12.745 10.368-23.113 23.113-23.113h12.007c12.745 0 23.113 10.369 23.113 23.113v10.698c0 1.104-.896 2-2 2zm-52.233-4h50.233v-8.698c0-10.539-8.574-19.113-19.113-19.113h-12.007c-10.539 0-19.113 8.574-19.113 19.113z" fill="#3762cc"/><path d="m110.599 38.801c-.008-.038-.017-.075-.027-.112-.044-.162-.1-.319-.175-.466-.009-.017-.02-.032-.029-.049-.073-.135-.16-.261-.258-.379-.023-.027-.043-.055-.067-.081-.111-.124-.235-.236-.371-.335-.009-.007-.016-.016-.026-.023-.018-.013-.039-.019-.057-.031-.123-.082-.254-.152-.393-.211-.028-.012-.054-.026-.082-.037-.014-.005-.026-.013-.04-.018l-21.577-7.712c-.52-.186-1.089-.186-1.609 0l-21.577 7.712c-.014.005-.026.013-.04.018-.028.011-.055.025-.083.037-.139.059-.27.13-.393.212-.018.012-.039.018-.056.03-.009.006-.016.016-.025.023-.136.099-.26.211-.372.335-.023.026-.044.053-.066.08-.098.119-.186.245-.259.381-.009.016-.02.031-.028.048-.076.148-.132.304-.176.466-.01.037-.018.074-.027.112-.036.166-.062.335-.062.51v26.253c0 1.011.635 1.912 1.587 2.252l21.577 7.712c.013.004.027.006.04.01.085.029.172.05.26.068.04.008.079.021.119.028.126.021.252.032.38.033h.005.005c.127 0 .254-.012.38-.033.04-.007.08-.019.12-.028.087-.019.174-.039.259-.068.014-.005.028-.006.041-.011l21.577-7.712c.951-.34 1.587-1.241 1.587-2.252v-26.253c0-.174-.026-.344-.062-.509zm-23.906-4.663 14.472 5.173-5.032 1.798-9.441 3.374-14.472-5.173zm-19.186 8.566 5.409 1.933 11.386 4.07v21.175l-16.795-6.002zm38.371 21.175-16.795 6.002v-21.174l13.706-4.899 3.088-1.104v21.175z" fill="#e0ebfc"/><path d="m220.232 67.833c-.005-.024-.01-.047-.017-.071-.028-.102-.063-.201-.111-.295-.005-.011-.013-.02-.018-.031-.046-.085-.101-.165-.163-.24-.014-.017-.027-.035-.042-.051-.07-.078-.148-.149-.234-.212-.006-.004-.01-.01-.016-.014-.011-.008-.025-.012-.036-.02-.078-.052-.16-.096-.248-.133-.018-.008-.034-.017-.052-.023-.009-.003-.017-.008-.025-.011l-13.634-4.873c-.328-.118-.688-.118-1.017 0l-13.634 4.873c-.009.003-.017.008-.025.011-.018.007-.035.016-.052.024-.088.037-.171.082-.248.134-.011.008-.024.011-.036.019-.006.004-.01.01-.016.014-.086.063-.164.133-.235.212-.015.016-.028.034-.042.051-.062.075-.117.155-.164.241-.006.01-.013.02-.018.03-.048.093-.083.192-.111.295-.006.024-.012.047-.017.071-.023.105-.039.212-.039.322v16.589c0 .639.401 1.208 1.003 1.423l13.634 4.873c.008.003.017.004.025.007.054.018.109.031.164.043.025.005.05.013.075.017.079.013.159.02.24.021h.003s0 0 0 0h.003c.081 0 .161-.008.24-.021.025-.004.05-.012.076-.018.055-.012.11-.025.163-.043.009-.003.017-.004.026-.007l13.634-4.873c.601-.215 1.003-.784 1.003-1.423v-16.589c0-.11-.016-.217-.039-.322zm-15.106-2.946 9.145 3.268-3.179 1.136-5.965 2.132-9.145-3.268zm-12.123 5.413 3.418 1.221 7.195 2.571v13.38l-10.612-3.793v-13.379zm24.246 13.38-10.612 3.793v-13.38l8.661-3.095 1.951-.697z" fill="#e0ebfc"/><path d="m177.685 113.032h-40.5c-1.105 0-2-.895-2-2v-29.786c0-1.105.895-2 2-2h40.5c1.105 0 2 .895 2 2v29.786c0 1.104-.896 2-2 2z" fill="#f9a7a7"/><g fill="#a4c9ff"><path d="m179.685 70.3h-31.805c-1.104 0-2-.896-2-2s.896-2 2-2h31.805c1.104 0 2 .896 2 2s-.896 2-2 2z"/><path d="m223.043 37.691h-66.71c-3.866 0-7-3.134-7-7v-3.691c0-3.866 3.134-7 7-7h66.71c3.866 0 7 3.134 7 7v3.691c0 3.866-3.134 7-7 7z"/><path d="m221.028 98.824h-31.805c-1.104 0-2-.896-2-2s.896-2 2-2h31.805c1.104 0 2 .896 2 2s-.895 2-2 2z"/><path d="m221.028 108.824h-31.805c-1.104 0-2-.896-2-2s.896-2 2-2h31.805c1.104 0 2 .896 2 2s-.895 2-2 2z"/></g></svg>